<mxfile host="app.diagrams.net" modified="2023-06-02T19:01:49.016Z" agent="Mozilla/5.0 (Windows NT 10.0; Win64; x64) AppleWebKit/537.36 (KHTML, like Gecko) Chrome/112.0.0.0 Safari/537.36 OPR/98.0.0.0" etag="aj-g2yQcmLszC3VJ1AOh" version="21.2.3" type="device">
  <diagram id="C5RBs43oDa-KdzZeNtuy" name="Page-1">
    <mxGraphModel dx="4477" dy="1259" grid="1" gridSize="10" guides="1" tooltips="1" connect="1" arrows="1" fold="1" page="1" pageScale="1" pageWidth="2336" pageHeight="1654" math="0" shadow="0">
      <root>
        <mxCell id="WIyWlLk6GJQsqaUBKTNV-0" />
        <mxCell id="WIyWlLk6GJQsqaUBKTNV-1" parent="WIyWlLk6GJQsqaUBKTNV-0" />
        <mxCell id="zkfFHV4jXpPFQw0GAbJ--6" value="App" style="swimlane;fontStyle=1;align=center;verticalAlign=top;childLayout=stackLayout;horizontal=1;startSize=26;horizontalStack=0;resizeParent=1;resizeLast=0;collapsible=1;marginBottom=0;rounded=0;shadow=0;strokeWidth=1;" parent="WIyWlLk6GJQsqaUBKTNV-1" vertex="1">
          <mxGeometry x="-2336" y="657" width="266" height="53" as="geometry">
            <mxRectangle x="130" y="380" width="160" height="26" as="alternateBounds" />
          </mxGeometry>
        </mxCell>
        <mxCell id="zkfFHV4jXpPFQw0GAbJ--8" value="Ressources" style="text;align=left;verticalAlign=top;spacingLeft=4;spacingRight=4;overflow=hidden;rotatable=0;points=[[0,0.5],[1,0.5]];portConstraint=eastwest;rounded=0;shadow=0;html=0;" parent="zkfFHV4jXpPFQw0GAbJ--6" vertex="1">
          <mxGeometry y="26" width="266" height="26" as="geometry" />
        </mxCell>
        <mxCell id="6Wl_LvFZBxU5VlWJ0OVk-2" value="" style="endArrow=none;html=1;rounded=0;exitX=1;exitY=0.5;exitDx=0;exitDy=0;" edge="1" parent="WIyWlLk6GJQsqaUBKTNV-1" target="6Wl_LvFZBxU5VlWJ0OVk-3">
          <mxGeometry width="50" height="50" relative="1" as="geometry">
            <mxPoint x="-2070" y="695.9999999999998" as="sourcePoint" />
            <mxPoint x="-1990" y="530" as="targetPoint" />
          </mxGeometry>
        </mxCell>
        <mxCell id="6Wl_LvFZBxU5VlWJ0OVk-3" value="Mainwindow" style="swimlane;fontStyle=1;align=center;verticalAlign=top;childLayout=stackLayout;horizontal=1;startSize=26;horizontalStack=0;resizeParent=1;resizeLast=0;collapsible=1;marginBottom=0;rounded=0;shadow=0;strokeWidth=1;" vertex="1" parent="WIyWlLk6GJQsqaUBKTNV-1">
          <mxGeometry x="-1990" width="310" height="1392" as="geometry">
            <mxRectangle x="-367" width="160" height="26" as="alternateBounds" />
          </mxGeometry>
        </mxCell>
        <mxCell id="6Wl_LvFZBxU5VlWJ0OVk-4" value="- mainTimer : System.Timers.Timer" style="text;align=left;verticalAlign=top;spacingLeft=4;spacingRight=4;overflow=hidden;rotatable=0;points=[[0,0.5],[1,0.5]];portConstraint=eastwest;fillColor=#dae8fc;strokeColor=#6c8ebf;" vertex="1" parent="6Wl_LvFZBxU5VlWJ0OVk-3">
          <mxGeometry y="26" width="310" height="26" as="geometry" />
        </mxCell>
        <mxCell id="6Wl_LvFZBxU5VlWJ0OVk-5" value="inventory : Inventory = null" style="text;align=left;verticalAlign=top;spacingLeft=4;spacingRight=4;overflow=hidden;rotatable=0;points=[[0,0.5],[1,0.5]];portConstraint=eastwest;rounded=0;shadow=0;html=0;strokeColor=#82b366;fillColor=#d5e8d4;" vertex="1" parent="6Wl_LvFZBxU5VlWJ0OVk-3">
          <mxGeometry y="52" width="310" height="26" as="geometry" />
        </mxCell>
        <mxCell id="6Wl_LvFZBxU5VlWJ0OVk-15" value="+ productList : Dictionary&lt;int, string&gt; = null" style="text;align=left;verticalAlign=top;spacingLeft=4;spacingRight=4;overflow=hidden;rotatable=0;points=[[0,0.5],[1,0.5]];portConstraint=eastwest;rounded=0;shadow=0;html=0;strokeColor=#82b366;fillColor=#d5e8d4;" vertex="1" parent="6Wl_LvFZBxU5VlWJ0OVk-3">
          <mxGeometry y="78" width="310" height="26" as="geometry" />
        </mxCell>
        <mxCell id="6Wl_LvFZBxU5VlWJ0OVk-16" value="+ storageMatrix : PalletMatrix" style="text;align=left;verticalAlign=top;spacingLeft=4;spacingRight=4;overflow=hidden;rotatable=0;points=[[0,0.5],[1,0.5]];portConstraint=eastwest;rounded=0;shadow=0;html=0;strokeColor=#82b366;fillColor=#d5e8d4;" vertex="1" parent="6Wl_LvFZBxU5VlWJ0OVk-3">
          <mxGeometry y="104" width="310" height="26" as="geometry" />
        </mxCell>
        <mxCell id="6Wl_LvFZBxU5VlWJ0OVk-17" value="+ commissionMatrix : PalletMatrix" style="text;align=left;verticalAlign=top;spacingLeft=4;spacingRight=4;overflow=hidden;rotatable=0;points=[[0,0.5],[1,0.5]];portConstraint=eastwest;rounded=0;shadow=0;html=0;strokeColor=#82b366;fillColor=#d5e8d4;" vertex="1" parent="6Wl_LvFZBxU5VlWJ0OVk-3">
          <mxGeometry y="130" width="310" height="26" as="geometry" />
        </mxCell>
        <mxCell id="6Wl_LvFZBxU5VlWJ0OVk-18" value="+ mobileRobot: MobileRobot" style="text;align=left;verticalAlign=top;spacingLeft=4;spacingRight=4;overflow=hidden;rotatable=0;points=[[0,0.5],[1,0.5]];portConstraint=eastwest;rounded=0;shadow=0;html=0;strokeColor=#82b366;fillColor=#d5e8d4;" vertex="1" parent="6Wl_LvFZBxU5VlWJ0OVk-3">
          <mxGeometry y="156" width="310" height="26" as="geometry" />
        </mxCell>
        <mxCell id="6Wl_LvFZBxU5VlWJ0OVk-19" value="+ lastCupIdRead : ushort = 0" style="text;align=left;verticalAlign=top;spacingLeft=4;spacingRight=4;overflow=hidden;rotatable=0;points=[[0,0.5],[1,0.5]];portConstraint=eastwest;rounded=0;shadow=0;html=0;strokeColor=#82b366;fillColor=#d5e8d4;" vertex="1" parent="6Wl_LvFZBxU5VlWJ0OVk-3">
          <mxGeometry y="182" width="310" height="26" as="geometry" />
        </mxCell>
        <mxCell id="6Wl_LvFZBxU5VlWJ0OVk-21" value="commands : ControllerCommandList" style="text;align=left;verticalAlign=top;spacingLeft=4;spacingRight=4;overflow=hidden;rotatable=0;points=[[0,0.5],[1,0.5]];portConstraint=eastwest;rounded=0;shadow=0;html=0;strokeColor=#d79b00;fillColor=#ffe6cc;" vertex="1" parent="6Wl_LvFZBxU5VlWJ0OVk-3">
          <mxGeometry y="208" width="310" height="26" as="geometry" />
        </mxCell>
        <mxCell id="6Wl_LvFZBxU5VlWJ0OVk-22" value="controllerProperties : RobotControllerProperties" style="text;align=left;verticalAlign=top;spacingLeft=4;spacingRight=4;overflow=hidden;rotatable=0;points=[[0,0.5],[1,0.5]];portConstraint=eastwest;rounded=0;shadow=0;html=0;strokeColor=#d79b00;fillColor=#ffe6cc;" vertex="1" parent="6Wl_LvFZBxU5VlWJ0OVk-3">
          <mxGeometry y="234" width="310" height="26" as="geometry" />
        </mxCell>
        <mxCell id="6Wl_LvFZBxU5VlWJ0OVk-23" value="controllerBase : RobotControllerBase" style="text;align=left;verticalAlign=top;spacingLeft=4;spacingRight=4;overflow=hidden;rotatable=0;points=[[0,0.5],[1,0.5]];portConstraint=eastwest;rounded=0;shadow=0;html=0;strokeColor=#d79b00;fillColor=#ffe6cc;" vertex="1" parent="6Wl_LvFZBxU5VlWJ0OVk-3">
          <mxGeometry y="260" width="310" height="26" as="geometry" />
        </mxCell>
        <mxCell id="6Wl_LvFZBxU5VlWJ0OVk-24" value="controllerSim : RobotSimulator" style="text;align=left;verticalAlign=top;spacingLeft=4;spacingRight=4;overflow=hidden;rotatable=0;points=[[0,0.5],[1,0.5]];portConstraint=eastwest;rounded=0;shadow=0;html=0;strokeColor=#d79b00;fillColor=#ffe6cc;" vertex="1" parent="6Wl_LvFZBxU5VlWJ0OVk-3">
          <mxGeometry y="286" width="310" height="26" as="geometry" />
        </mxCell>
        <mxCell id="6Wl_LvFZBxU5VlWJ0OVk-26" value="+ imgDisconnected : BitmapImage" style="text;align=left;verticalAlign=top;spacingLeft=4;spacingRight=4;overflow=hidden;rotatable=0;points=[[0,0.5],[1,0.5]];portConstraint=eastwest;rounded=0;shadow=0;html=0;strokeColor=#b85450;fillColor=#f8cecc;" vertex="1" parent="6Wl_LvFZBxU5VlWJ0OVk-3">
          <mxGeometry y="312" width="310" height="26" as="geometry" />
        </mxCell>
        <mxCell id="6Wl_LvFZBxU5VlWJ0OVk-27" value="+ imgWorking : BitmapImage" style="text;align=left;verticalAlign=top;spacingLeft=4;spacingRight=4;overflow=hidden;rotatable=0;points=[[0,0.5],[1,0.5]];portConstraint=eastwest;rounded=0;shadow=0;html=0;strokeColor=#b85450;fillColor=#f8cecc;" vertex="1" parent="6Wl_LvFZBxU5VlWJ0OVk-3">
          <mxGeometry y="338" width="310" height="26" as="geometry" />
        </mxCell>
        <mxCell id="6Wl_LvFZBxU5VlWJ0OVk-28" value="+ imgConnected : BitmapImage" style="text;align=left;verticalAlign=top;spacingLeft=4;spacingRight=4;overflow=hidden;rotatable=0;points=[[0,0.5],[1,0.5]];portConstraint=eastwest;rounded=0;shadow=0;html=0;strokeColor=#b85450;fillColor=#f8cecc;" vertex="1" parent="6Wl_LvFZBxU5VlWJ0OVk-3">
          <mxGeometry y="364" width="310" height="26" as="geometry" />
        </mxCell>
        <mxCell id="6Wl_LvFZBxU5VlWJ0OVk-6" value="" style="line;html=1;strokeWidth=1;align=left;verticalAlign=middle;spacingTop=-1;spacingLeft=3;spacingRight=3;rotatable=0;labelPosition=right;points=[];portConstraint=eastwest;" vertex="1" parent="6Wl_LvFZBxU5VlWJ0OVk-3">
          <mxGeometry y="390" width="310" height="8" as="geometry" />
        </mxCell>
        <mxCell id="6Wl_LvFZBxU5VlWJ0OVk-7" value="+ MainWIndow()" style="text;align=left;verticalAlign=top;spacingLeft=4;spacingRight=4;overflow=hidden;rotatable=0;points=[[0,0.5],[1,0.5]];portConstraint=eastwest;fontStyle=0" vertex="1" parent="6Wl_LvFZBxU5VlWJ0OVk-3">
          <mxGeometry y="398" width="310" height="26" as="geometry" />
        </mxCell>
        <mxCell id="6Wl_LvFZBxU5VlWJ0OVk-8" value="+ SaveStorage()" style="text;align=left;verticalAlign=top;spacingLeft=4;spacingRight=4;overflow=hidden;rotatable=0;points=[[0,0.5],[1,0.5]];portConstraint=eastwest;fillColor=#d5e8d4;strokeColor=#82b366;" vertex="1" parent="6Wl_LvFZBxU5VlWJ0OVk-3">
          <mxGeometry y="424" width="310" height="26" as="geometry" />
        </mxCell>
        <mxCell id="6Wl_LvFZBxU5VlWJ0OVk-30" value="+ LoadProductList()" style="text;align=left;verticalAlign=top;spacingLeft=4;spacingRight=4;overflow=hidden;rotatable=0;points=[[0,0.5],[1,0.5]];portConstraint=eastwest;fillColor=#d5e8d4;strokeColor=#82b366;" vertex="1" parent="6Wl_LvFZBxU5VlWJ0OVk-3">
          <mxGeometry y="450" width="310" height="26" as="geometry" />
        </mxCell>
        <mxCell id="6Wl_LvFZBxU5VlWJ0OVk-31" value="+ LoadStorage()" style="text;align=left;verticalAlign=top;spacingLeft=4;spacingRight=4;overflow=hidden;rotatable=0;points=[[0,0.5],[1,0.5]];portConstraint=eastwest;fillColor=#d5e8d4;strokeColor=#82b366;" vertex="1" parent="6Wl_LvFZBxU5VlWJ0OVk-3">
          <mxGeometry y="476" width="310" height="26" as="geometry" />
        </mxCell>
        <mxCell id="6Wl_LvFZBxU5VlWJ0OVk-32" value="+ SaveStorage()" style="text;align=left;verticalAlign=top;spacingLeft=4;spacingRight=4;overflow=hidden;rotatable=0;points=[[0,0.5],[1,0.5]];portConstraint=eastwest;fillColor=#d5e8d4;strokeColor=#82b366;" vertex="1" parent="6Wl_LvFZBxU5VlWJ0OVk-3">
          <mxGeometry y="502" width="310" height="26" as="geometry" />
        </mxCell>
        <mxCell id="6Wl_LvFZBxU5VlWJ0OVk-33" value="+ LoadCommiss()" style="text;align=left;verticalAlign=top;spacingLeft=4;spacingRight=4;overflow=hidden;rotatable=0;points=[[0,0.5],[1,0.5]];portConstraint=eastwest;fillColor=#d5e8d4;strokeColor=#82b366;" vertex="1" parent="6Wl_LvFZBxU5VlWJ0OVk-3">
          <mxGeometry y="528" width="310" height="26" as="geometry" />
        </mxCell>
        <mxCell id="6Wl_LvFZBxU5VlWJ0OVk-34" value="+ SaveCommiss()" style="text;align=left;verticalAlign=top;spacingLeft=4;spacingRight=4;overflow=hidden;rotatable=0;points=[[0,0.5],[1,0.5]];portConstraint=eastwest;fillColor=#d5e8d4;strokeColor=#82b366;" vertex="1" parent="6Wl_LvFZBxU5VlWJ0OVk-3">
          <mxGeometry y="554" width="310" height="26" as="geometry" />
        </mxCell>
        <mxCell id="6Wl_LvFZBxU5VlWJ0OVk-35" value="+ LoadMobiBot()" style="text;align=left;verticalAlign=top;spacingLeft=4;spacingRight=4;overflow=hidden;rotatable=0;points=[[0,0.5],[1,0.5]];portConstraint=eastwest;fillColor=#d5e8d4;strokeColor=#82b366;" vertex="1" parent="6Wl_LvFZBxU5VlWJ0OVk-3">
          <mxGeometry y="580" width="310" height="26" as="geometry" />
        </mxCell>
        <mxCell id="6Wl_LvFZBxU5VlWJ0OVk-36" value="+ SaveMobiBot()" style="text;align=left;verticalAlign=top;spacingLeft=4;spacingRight=4;overflow=hidden;rotatable=0;points=[[0,0.5],[1,0.5]];portConstraint=eastwest;fillColor=#d5e8d4;strokeColor=#82b366;" vertex="1" parent="6Wl_LvFZBxU5VlWJ0OVk-3">
          <mxGeometry y="606" width="310" height="26" as="geometry" />
        </mxCell>
        <mxCell id="6Wl_LvFZBxU5VlWJ0OVk-37" value="+ BindPallet()" style="text;align=left;verticalAlign=top;spacingLeft=4;spacingRight=4;overflow=hidden;rotatable=0;points=[[0,0.5],[1,0.5]];portConstraint=eastwest;strokeColor=#82b366;fillColor=#d5e8d4;" vertex="1" parent="6Wl_LvFZBxU5VlWJ0OVk-3">
          <mxGeometry y="632" width="310" height="26" as="geometry" />
        </mxCell>
        <mxCell id="6Wl_LvFZBxU5VlWJ0OVk-38" value="+ ReadPalletMatrix()" style="text;align=left;verticalAlign=top;spacingLeft=4;spacingRight=4;overflow=hidden;rotatable=0;points=[[0,0.5],[1,0.5]];portConstraint=eastwest;strokeColor=#82b366;fillColor=#d5e8d4;" vertex="1" parent="6Wl_LvFZBxU5VlWJ0OVk-3">
          <mxGeometry y="658" width="310" height="26" as="geometry" />
        </mxCell>
        <mxCell id="6Wl_LvFZBxU5VlWJ0OVk-39" value="+ WritePalletMatrix()" style="text;align=left;verticalAlign=top;spacingLeft=4;spacingRight=4;overflow=hidden;rotatable=0;points=[[0,0.5],[1,0.5]];portConstraint=eastwest;strokeColor=#82b366;fillColor=#d5e8d4;" vertex="1" parent="6Wl_LvFZBxU5VlWJ0OVk-3">
          <mxGeometry y="684" width="310" height="26" as="geometry" />
        </mxCell>
        <mxCell id="6Wl_LvFZBxU5VlWJ0OVk-40" value="+ OnModbusFunction()" style="text;align=left;verticalAlign=top;spacingLeft=4;spacingRight=4;overflow=hidden;rotatable=0;points=[[0,0.5],[1,0.5]];portConstraint=eastwest;" vertex="1" parent="6Wl_LvFZBxU5VlWJ0OVk-3">
          <mxGeometry y="710" width="310" height="26" as="geometry" />
        </mxCell>
        <mxCell id="6Wl_LvFZBxU5VlWJ0OVk-41" value="+ async MainTimerFunction()" style="text;align=left;verticalAlign=top;spacingLeft=4;spacingRight=4;overflow=hidden;rotatable=0;points=[[0,0.5],[1,0.5]];portConstraint=eastwest;fillColor=#dae8fc;strokeColor=#6c8ebf;" vertex="1" parent="6Wl_LvFZBxU5VlWJ0OVk-3">
          <mxGeometry y="736" width="310" height="26" as="geometry" />
        </mxCell>
        <mxCell id="6Wl_LvFZBxU5VlWJ0OVk-44" value="+ LogEvent()" style="text;align=left;verticalAlign=top;spacingLeft=4;spacingRight=4;overflow=hidden;rotatable=0;points=[[0,0.5],[1,0.5]];portConstraint=eastwest;fillColor=#e1d5e7;strokeColor=#9673a6;" vertex="1" parent="6Wl_LvFZBxU5VlWJ0OVk-3">
          <mxGeometry y="762" width="310" height="26" as="geometry" />
        </mxCell>
        <mxCell id="6Wl_LvFZBxU5VlWJ0OVk-43" value="+ LogEventGUI()" style="text;align=left;verticalAlign=top;spacingLeft=4;spacingRight=4;overflow=hidden;rotatable=0;points=[[0,0.5],[1,0.5]];portConstraint=eastwest;fillColor=#e1d5e7;strokeColor=#9673a6;" vertex="1" parent="6Wl_LvFZBxU5VlWJ0OVk-3">
          <mxGeometry y="788" width="310" height="26" as="geometry" />
        </mxCell>
        <mxCell id="6Wl_LvFZBxU5VlWJ0OVk-45" value="+ LogEventModBus()" style="text;align=left;verticalAlign=top;spacingLeft=4;spacingRight=4;overflow=hidden;rotatable=0;points=[[0,0.5],[1,0.5]];portConstraint=eastwest;fillColor=#e1d5e7;strokeColor=#9673a6;" vertex="1" parent="6Wl_LvFZBxU5VlWJ0OVk-3">
          <mxGeometry y="814" width="310" height="26" as="geometry" />
        </mxCell>
        <mxCell id="6Wl_LvFZBxU5VlWJ0OVk-46" value="+ LogEventRobotController()" style="text;align=left;verticalAlign=top;spacingLeft=4;spacingRight=4;overflow=hidden;rotatable=0;points=[[0,0.5],[1,0.5]];portConstraint=eastwest;fillColor=#e1d5e7;strokeColor=#9673a6;" vertex="1" parent="6Wl_LvFZBxU5VlWJ0OVk-3">
          <mxGeometry y="840" width="310" height="26" as="geometry" />
        </mxCell>
        <mxCell id="6Wl_LvFZBxU5VlWJ0OVk-49" value="+ ParseFunction()" style="text;align=left;verticalAlign=top;spacingLeft=4;spacingRight=4;overflow=hidden;rotatable=0;points=[[0,0.5],[1,0.5]];portConstraint=eastwest;fillColor=#ffe6cc;strokeColor=#d79b00;" vertex="1" parent="6Wl_LvFZBxU5VlWJ0OVk-3">
          <mxGeometry y="866" width="310" height="26" as="geometry" />
        </mxCell>
        <mxCell id="6Wl_LvFZBxU5VlWJ0OVk-50" value="+ RobotToStorage()" style="text;align=left;verticalAlign=top;spacingLeft=4;spacingRight=4;overflow=hidden;rotatable=0;points=[[0,0.5],[1,0.5]];portConstraint=eastwest;fillColor=#ffe6cc;strokeColor=#d79b00;" vertex="1" parent="6Wl_LvFZBxU5VlWJ0OVk-3">
          <mxGeometry y="892" width="310" height="26" as="geometry" />
        </mxCell>
        <mxCell id="6Wl_LvFZBxU5VlWJ0OVk-51" value="+ StorageToRobot()" style="text;align=left;verticalAlign=top;spacingLeft=4;spacingRight=4;overflow=hidden;rotatable=0;points=[[0,0.5],[1,0.5]];portConstraint=eastwest;fillColor=#ffe6cc;strokeColor=#d79b00;" vertex="1" parent="6Wl_LvFZBxU5VlWJ0OVk-3">
          <mxGeometry y="918" width="310" height="26" as="geometry" />
        </mxCell>
        <mxCell id="6Wl_LvFZBxU5VlWJ0OVk-53" value="+ RelatedCommandExists()" style="text;align=left;verticalAlign=top;spacingLeft=4;spacingRight=4;overflow=hidden;rotatable=0;points=[[0,0.5],[1,0.5]];portConstraint=eastwest;fillColor=#ffe6cc;strokeColor=#d79b00;" vertex="1" parent="6Wl_LvFZBxU5VlWJ0OVk-3">
          <mxGeometry y="944" width="310" height="26" as="geometry" />
        </mxCell>
        <mxCell id="6Wl_LvFZBxU5VlWJ0OVk-52" value="+ EnableExistingCommand()" style="text;align=left;verticalAlign=top;spacingLeft=4;spacingRight=4;overflow=hidden;rotatable=0;points=[[0,0.5],[1,0.5]];portConstraint=eastwest;fillColor=#ffe6cc;strokeColor=#d79b00;" vertex="1" parent="6Wl_LvFZBxU5VlWJ0OVk-3">
          <mxGeometry y="970" width="310" height="26" as="geometry" />
        </mxCell>
        <mxCell id="6Wl_LvFZBxU5VlWJ0OVk-54" value="+ MoveToTopPriority()" style="text;align=left;verticalAlign=top;spacingLeft=4;spacingRight=4;overflow=hidden;rotatable=0;points=[[0,0.5],[1,0.5]];portConstraint=eastwest;fillColor=#ffe6cc;strokeColor=#d79b00;" vertex="1" parent="6Wl_LvFZBxU5VlWJ0OVk-3">
          <mxGeometry y="996" width="310" height="26" as="geometry" />
        </mxCell>
        <mxCell id="6Wl_LvFZBxU5VlWJ0OVk-55" value="+ RemoveCommands()" style="text;align=left;verticalAlign=top;spacingLeft=4;spacingRight=4;overflow=hidden;rotatable=0;points=[[0,0.5],[1,0.5]];portConstraint=eastwest;fillColor=#ffe6cc;strokeColor=#d79b00;" vertex="1" parent="6Wl_LvFZBxU5VlWJ0OVk-3">
          <mxGeometry y="1022" width="310" height="26" as="geometry" />
        </mxCell>
        <mxCell id="6Wl_LvFZBxU5VlWJ0OVk-56" value="+ FindRelatedProductID()" style="text;align=left;verticalAlign=top;spacingLeft=4;spacingRight=4;overflow=hidden;rotatable=0;points=[[0,0.5],[1,0.5]];portConstraint=eastwest;fillColor=#ffe6cc;strokeColor=#d79b00;" vertex="1" parent="6Wl_LvFZBxU5VlWJ0OVk-3">
          <mxGeometry y="1048" width="310" height="26" as="geometry" />
        </mxCell>
        <mxCell id="6Wl_LvFZBxU5VlWJ0OVk-57" value="+ GetNextCupIDFromCmdQueue()" style="text;align=left;verticalAlign=top;spacingLeft=4;spacingRight=4;overflow=hidden;rotatable=0;points=[[0,0.5],[1,0.5]];portConstraint=eastwest;fillColor=#ffe6cc;strokeColor=#d79b00;" vertex="1" parent="6Wl_LvFZBxU5VlWJ0OVk-3">
          <mxGeometry y="1074" width="310" height="26" as="geometry" />
        </mxCell>
        <mxCell id="6Wl_LvFZBxU5VlWJ0OVk-58" value="+ GetNextProdIDFromCmdQueue()" style="text;align=left;verticalAlign=top;spacingLeft=4;spacingRight=4;overflow=hidden;rotatable=0;points=[[0,0.5],[1,0.5]];portConstraint=eastwest;fillColor=#ffe6cc;strokeColor=#d79b00;" vertex="1" parent="6Wl_LvFZBxU5VlWJ0OVk-3">
          <mxGeometry y="1100" width="310" height="26" as="geometry" />
        </mxCell>
        <mxCell id="6Wl_LvFZBxU5VlWJ0OVk-59" value="+ SetMobileRobotCupIdProdID()" style="text;align=left;verticalAlign=top;spacingLeft=4;spacingRight=4;overflow=hidden;rotatable=0;points=[[0,0.5],[1,0.5]];portConstraint=eastwest;fillColor=#ffe6cc;strokeColor=#d79b00;" vertex="1" parent="6Wl_LvFZBxU5VlWJ0OVk-3">
          <mxGeometry y="1126" width="310" height="26" as="geometry" />
        </mxCell>
        <mxCell id="6Wl_LvFZBxU5VlWJ0OVk-73" value="- Window_Closing()" style="text;align=left;verticalAlign=top;spacingLeft=4;spacingRight=4;overflow=hidden;rotatable=0;points=[[0,0.5],[1,0.5]];portConstraint=eastwest;fillColor=#f8cecc;strokeColor=#b85450;" vertex="1" parent="6Wl_LvFZBxU5VlWJ0OVk-3">
          <mxGeometry y="1152" width="310" height="26" as="geometry" />
        </mxCell>
        <mxCell id="6Wl_LvFZBxU5VlWJ0OVk-72" value="- Window_Loaded" style="text;align=left;verticalAlign=top;spacingLeft=4;spacingRight=4;overflow=hidden;rotatable=0;points=[[0,0.5],[1,0.5]];portConstraint=eastwest;fillColor=#f8cecc;strokeColor=#b85450;" vertex="1" parent="6Wl_LvFZBxU5VlWJ0OVk-3">
          <mxGeometry y="1178" width="310" height="26" as="geometry" />
        </mxCell>
        <mxCell id="6Wl_LvFZBxU5VlWJ0OVk-71" value="+ SaveButton_click()" style="text;align=left;verticalAlign=top;spacingLeft=4;spacingRight=4;overflow=hidden;rotatable=0;points=[[0,0.5],[1,0.5]];portConstraint=eastwest;fillColor=#f8cecc;strokeColor=#b85450;" vertex="1" parent="6Wl_LvFZBxU5VlWJ0OVk-3">
          <mxGeometry y="1204" width="310" height="26" as="geometry" />
        </mxCell>
        <mxCell id="6Wl_LvFZBxU5VlWJ0OVk-70" value="+ ClearLogButton_click()" style="text;align=left;verticalAlign=top;spacingLeft=4;spacingRight=4;overflow=hidden;rotatable=0;points=[[0,0.5],[1,0.5]];portConstraint=eastwest;fillColor=#f8cecc;strokeColor=#b85450;" vertex="1" parent="6Wl_LvFZBxU5VlWJ0OVk-3">
          <mxGeometry y="1230" width="310" height="26" as="geometry" />
        </mxCell>
        <mxCell id="6Wl_LvFZBxU5VlWJ0OVk-69" value="- StartProcess_click()" style="text;align=left;verticalAlign=top;spacingLeft=4;spacingRight=4;overflow=hidden;rotatable=0;points=[[0,0.5],[1,0.5]];portConstraint=eastwest;fillColor=#f8cecc;strokeColor=#b85450;" vertex="1" parent="6Wl_LvFZBxU5VlWJ0OVk-3">
          <mxGeometry y="1256" width="310" height="26" as="geometry" />
        </mxCell>
        <mxCell id="6Wl_LvFZBxU5VlWJ0OVk-68" value="- StopProcess_click" style="text;align=left;verticalAlign=top;spacingLeft=4;spacingRight=4;overflow=hidden;rotatable=0;points=[[0,0.5],[1,0.5]];portConstraint=eastwest;fillColor=#f8cecc;strokeColor=#b85450;" vertex="1" parent="6Wl_LvFZBxU5VlWJ0OVk-3">
          <mxGeometry y="1282" width="310" height="26" as="geometry" />
        </mxCell>
        <mxCell id="6Wl_LvFZBxU5VlWJ0OVk-67" value="+ OnHighlightIndex()" style="text;align=left;verticalAlign=top;spacingLeft=4;spacingRight=4;overflow=hidden;rotatable=0;points=[[0,0.5],[1,0.5]];portConstraint=eastwest;fillColor=#f8cecc;strokeColor=#b85450;" vertex="1" parent="6Wl_LvFZBxU5VlWJ0OVk-3">
          <mxGeometry y="1308" width="310" height="26" as="geometry" />
        </mxCell>
        <mxCell id="6Wl_LvFZBxU5VlWJ0OVk-61" value="" style="line;html=1;strokeWidth=1;align=left;verticalAlign=middle;spacingTop=-1;spacingLeft=3;spacingRight=3;rotatable=0;labelPosition=right;points=[];portConstraint=eastwest;" vertex="1" parent="6Wl_LvFZBxU5VlWJ0OVk-3">
          <mxGeometry y="1334" width="310" height="8" as="geometry" />
        </mxCell>
        <mxCell id="6Wl_LvFZBxU5VlWJ0OVk-62" value="zzgl. diverse Hilfsklassen zur Datenkonvertierung &#xa;und GUI-Steuerung. &#xa;Der Übersicht halber sind Diese ausgeblendet." style="text;align=left;verticalAlign=top;spacingLeft=4;spacingRight=4;overflow=hidden;rotatable=0;points=[[0,0.5],[1,0.5]];portConstraint=eastwest;" vertex="1" parent="6Wl_LvFZBxU5VlWJ0OVk-3">
          <mxGeometry y="1342" width="310" height="50" as="geometry" />
        </mxCell>
        <mxCell id="6Wl_LvFZBxU5VlWJ0OVk-10" value="0..1" style="edgeLabel;html=1;align=center;verticalAlign=middle;resizable=0;points=[];" vertex="1" connectable="0" parent="WIyWlLk6GJQsqaUBKTNV-1">
          <mxGeometry x="-2153.002857142857" y="693" as="geometry">
            <mxPoint x="150" y="-6" as="offset" />
          </mxGeometry>
        </mxCell>
        <mxCell id="6Wl_LvFZBxU5VlWJ0OVk-11" value="StartupUri" style="text;html=1;align=right;verticalAlign=middle;resizable=0;points=[];autosize=1;strokeColor=none;fillColor=none;" vertex="1" parent="WIyWlLk6GJQsqaUBKTNV-1">
          <mxGeometry x="-2071" y="700" width="80" height="30" as="geometry" />
        </mxCell>
        <mxCell id="6Wl_LvFZBxU5VlWJ0OVk-20" value="Storage related&amp;nbsp; variables" style="rounded=0;whiteSpace=wrap;html=1;fillColor=#d5e8d4;strokeColor=#82b366;rotation=90;" vertex="1" parent="WIyWlLk6GJQsqaUBKTNV-1">
          <mxGeometry x="-1775.12" y="112.13" width="156" height="35.5" as="geometry" />
        </mxCell>
        <mxCell id="6Wl_LvFZBxU5VlWJ0OVk-25" value="ABB controller variables" style="rounded=0;whiteSpace=wrap;html=1;fillColor=#ffe6cc;strokeColor=#d79b00;rotation=90;" vertex="1" parent="WIyWlLk6GJQsqaUBKTNV-1">
          <mxGeometry x="-1749.1799999999998" y="242.06" width="104" height="35.5" as="geometry" />
        </mxCell>
        <mxCell id="6Wl_LvFZBxU5VlWJ0OVk-29" value="UI variables" style="rounded=0;whiteSpace=wrap;html=1;fillColor=#f8cecc;strokeColor=#b85450;rotation=90;" vertex="1" parent="WIyWlLk6GJQsqaUBKTNV-1">
          <mxGeometry x="-1736.12" y="333" width="78" height="35.5" as="geometry" />
        </mxCell>
        <mxCell id="6Wl_LvFZBxU5VlWJ0OVk-42" value="Storage related&amp;nbsp; methods" style="rounded=0;whiteSpace=wrap;html=1;fillColor=#d5e8d4;strokeColor=#82b366;rotation=90;" vertex="1" parent="WIyWlLk6GJQsqaUBKTNV-1">
          <mxGeometry x="-1841.12" y="549" width="286" height="35.5" as="geometry" />
        </mxCell>
        <mxCell id="6Wl_LvFZBxU5VlWJ0OVk-48" value="Log Functions" style="rounded=0;whiteSpace=wrap;html=1;fillColor=#e1d5e7;strokeColor=#9673a6;rotation=90;" vertex="1" parent="WIyWlLk6GJQsqaUBKTNV-1">
          <mxGeometry x="-1749.12" y="796" width="104" height="35.5" as="geometry" />
        </mxCell>
        <mxCell id="6Wl_LvFZBxU5VlWJ0OVk-60" value="Command related functions" style="rounded=0;whiteSpace=wrap;html=1;fillColor=#ffe6cc;strokeColor=#d79b00;rotation=90;" vertex="1" parent="WIyWlLk6GJQsqaUBKTNV-1">
          <mxGeometry x="-1840" y="991" width="286" height="35.5" as="geometry" />
        </mxCell>
        <mxCell id="6Wl_LvFZBxU5VlWJ0OVk-74" value="UI Eventhandlers" style="rounded=0;whiteSpace=wrap;html=1;fillColor=#f8cecc;strokeColor=#b85450;rotation=90;" vertex="1" parent="WIyWlLk6GJQsqaUBKTNV-1">
          <mxGeometry x="-1788" y="1225.5" width="182" height="35.5" as="geometry" />
        </mxCell>
        <mxCell id="6Wl_LvFZBxU5VlWJ0OVk-75" value="Inventory" style="swimlane;fontStyle=1;align=center;verticalAlign=top;childLayout=stackLayout;horizontal=1;startSize=26;horizontalStack=0;resizeParent=1;resizeLast=0;collapsible=1;marginBottom=0;rounded=0;shadow=0;strokeWidth=1;" vertex="1" parent="WIyWlLk6GJQsqaUBKTNV-1">
          <mxGeometry x="-1380" width="310" height="138" as="geometry">
            <mxRectangle x="130" y="380" width="160" height="26" as="alternateBounds" />
          </mxGeometry>
        </mxCell>
        <mxCell id="6Wl_LvFZBxU5VlWJ0OVk-76" value="+ itemsFull : ObservableCollection&lt;InventoryItem&gt; " style="text;align=left;verticalAlign=top;spacingLeft=4;spacingRight=4;overflow=hidden;rotatable=0;points=[[0,0.5],[1,0.5]];portConstraint=eastwest;" vertex="1" parent="6Wl_LvFZBxU5VlWJ0OVk-75">
          <mxGeometry y="26" width="310" height="26" as="geometry" />
        </mxCell>
        <mxCell id="6Wl_LvFZBxU5VlWJ0OVk-77" value="+ itemsNonEmpty : ObservableCollection&lt;InventoryItem&gt;" style="text;align=left;verticalAlign=top;spacingLeft=4;spacingRight=4;overflow=hidden;rotatable=0;points=[[0,0.5],[1,0.5]];portConstraint=eastwest;rounded=0;shadow=0;html=0;" vertex="1" parent="6Wl_LvFZBxU5VlWJ0OVk-75">
          <mxGeometry y="52" width="310" height="26" as="geometry" />
        </mxCell>
        <mxCell id="6Wl_LvFZBxU5VlWJ0OVk-79" value="" style="line;html=1;strokeWidth=1;align=left;verticalAlign=middle;spacingTop=-1;spacingLeft=3;spacingRight=3;rotatable=0;labelPosition=right;points=[];portConstraint=eastwest;" vertex="1" parent="6Wl_LvFZBxU5VlWJ0OVk-75">
          <mxGeometry y="78" width="310" height="8" as="geometry" />
        </mxCell>
        <mxCell id="6Wl_LvFZBxU5VlWJ0OVk-78" value="+ Inventory()" style="text;align=left;verticalAlign=top;spacingLeft=4;spacingRight=4;overflow=hidden;rotatable=0;points=[[0,0.5],[1,0.5]];portConstraint=eastwest;rounded=0;shadow=0;html=0;" vertex="1" parent="6Wl_LvFZBxU5VlWJ0OVk-75">
          <mxGeometry y="86" width="310" height="26" as="geometry" />
        </mxCell>
        <mxCell id="6Wl_LvFZBxU5VlWJ0OVk-80" value="+ Update()" style="text;align=left;verticalAlign=top;spacingLeft=4;spacingRight=4;overflow=hidden;rotatable=0;points=[[0,0.5],[1,0.5]];portConstraint=eastwest;rounded=0;shadow=0;html=0;" vertex="1" parent="6Wl_LvFZBxU5VlWJ0OVk-75">
          <mxGeometry y="112" width="310" height="26" as="geometry" />
        </mxCell>
        <mxCell id="6Wl_LvFZBxU5VlWJ0OVk-82" value="" style="edgeStyle=segmentEdgeStyle;endArrow=none;html=1;curved=0;rounded=0;sourcePerimeterSpacing=0;targetPerimeterSpacing=0;endFill=0;" edge="1" parent="WIyWlLk6GJQsqaUBKTNV-1" source="6Wl_LvFZBxU5VlWJ0OVk-3">
          <mxGeometry width="100" relative="1" as="geometry">
            <mxPoint x="-1566" y="26.000000000000114" as="sourcePoint" />
            <mxPoint x="-1380" y="26.000000000000114" as="targetPoint" />
            <Array as="points">
              <mxPoint x="-1560" y="26" />
              <mxPoint x="-1560" y="26" />
            </Array>
          </mxGeometry>
        </mxCell>
        <mxCell id="6Wl_LvFZBxU5VlWJ0OVk-83" value="InventoryItem" style="swimlane;fontStyle=1;align=center;verticalAlign=top;childLayout=stackLayout;horizontal=1;startSize=26;horizontalStack=0;resizeParent=1;resizeLast=0;collapsible=1;marginBottom=0;rounded=0;shadow=0;strokeWidth=1;" vertex="1" parent="WIyWlLk6GJQsqaUBKTNV-1">
          <mxGeometry x="-940" width="220" height="200" as="geometry">
            <mxRectangle x="130" y="380" width="160" height="26" as="alternateBounds" />
          </mxGeometry>
        </mxCell>
        <mxCell id="6Wl_LvFZBxU5VlWJ0OVk-84" value="- id: int = 0" style="text;align=left;verticalAlign=top;spacingLeft=4;spacingRight=4;overflow=hidden;rotatable=0;points=[[0,0.5],[1,0.5]];portConstraint=eastwest;" vertex="1" parent="6Wl_LvFZBxU5VlWJ0OVk-83">
          <mxGeometry y="26" width="220" height="26" as="geometry" />
        </mxCell>
        <mxCell id="6Wl_LvFZBxU5VlWJ0OVk-85" value="- description : string = string.Empty" style="text;align=left;verticalAlign=top;spacingLeft=4;spacingRight=4;overflow=hidden;rotatable=0;points=[[0,0.5],[1,0.5]];portConstraint=eastwest;rounded=0;shadow=0;html=0;" vertex="1" parent="6Wl_LvFZBxU5VlWJ0OVk-83">
          <mxGeometry y="52" width="220" height="26" as="geometry" />
        </mxCell>
        <mxCell id="6Wl_LvFZBxU5VlWJ0OVk-89" value="- quantity: int = 0" style="text;align=left;verticalAlign=top;spacingLeft=4;spacingRight=4;overflow=hidden;rotatable=0;points=[[0,0.5],[1,0.5]];portConstraint=eastwest;" vertex="1" parent="6Wl_LvFZBxU5VlWJ0OVk-83">
          <mxGeometry y="78" width="220" height="26" as="geometry" />
        </mxCell>
        <mxCell id="6Wl_LvFZBxU5VlWJ0OVk-86" value="" style="line;html=1;strokeWidth=1;align=left;verticalAlign=middle;spacingTop=-1;spacingLeft=3;spacingRight=3;rotatable=0;labelPosition=right;points=[];portConstraint=eastwest;" vertex="1" parent="6Wl_LvFZBxU5VlWJ0OVk-83">
          <mxGeometry y="104" width="220" height="8" as="geometry" />
        </mxCell>
        <mxCell id="6Wl_LvFZBxU5VlWJ0OVk-87" value="+ Inventory()" style="text;align=left;verticalAlign=top;spacingLeft=4;spacingRight=4;overflow=hidden;rotatable=0;points=[[0,0.5],[1,0.5]];portConstraint=eastwest;rounded=0;shadow=0;html=0;" vertex="1" parent="6Wl_LvFZBxU5VlWJ0OVk-83">
          <mxGeometry y="112" width="220" height="26" as="geometry" />
        </mxCell>
        <mxCell id="6Wl_LvFZBxU5VlWJ0OVk-88" value="+ Update()" style="text;align=left;verticalAlign=top;spacingLeft=4;spacingRight=4;overflow=hidden;rotatable=0;points=[[0,0.5],[1,0.5]];portConstraint=eastwest;rounded=0;shadow=0;html=0;" vertex="1" parent="6Wl_LvFZBxU5VlWJ0OVk-83">
          <mxGeometry y="138" width="220" height="26" as="geometry" />
        </mxCell>
        <mxCell id="6Wl_LvFZBxU5VlWJ0OVk-90" value="" style="line;html=1;strokeWidth=1;align=left;verticalAlign=middle;spacingTop=-1;spacingLeft=3;spacingRight=3;rotatable=0;labelPosition=right;points=[];portConstraint=eastwest;" vertex="1" parent="6Wl_LvFZBxU5VlWJ0OVk-83">
          <mxGeometry y="164" width="220" height="8" as="geometry" />
        </mxCell>
        <mxCell id="6Wl_LvFZBxU5VlWJ0OVk-91" value="zzgl. PropertyChangeEventhandler" style="text;align=left;verticalAlign=top;spacingLeft=4;spacingRight=4;overflow=hidden;rotatable=0;points=[[0,0.5],[1,0.5]];portConstraint=eastwest;" vertex="1" parent="6Wl_LvFZBxU5VlWJ0OVk-83">
          <mxGeometry y="172" width="220" height="28" as="geometry" />
        </mxCell>
        <mxCell id="6Wl_LvFZBxU5VlWJ0OVk-92" value="" style="edgeStyle=segmentEdgeStyle;endArrow=none;html=1;curved=0;rounded=0;endSize=8;startSize=8;sourcePerimeterSpacing=0;targetPerimeterSpacing=0;endFill=0;" edge="1" parent="WIyWlLk6GJQsqaUBKTNV-1">
          <mxGeometry width="100" relative="1" as="geometry">
            <mxPoint x="-1070" y="58" as="sourcePoint" />
            <mxPoint x="-940" y="58" as="targetPoint" />
            <Array as="points" />
          </mxGeometry>
        </mxCell>
        <mxCell id="6Wl_LvFZBxU5VlWJ0OVk-93" value="PalletMatrix" style="swimlane;fontStyle=1;align=center;verticalAlign=top;childLayout=stackLayout;horizontal=1;startSize=26;horizontalStack=0;resizeParent=1;resizeLast=0;collapsible=1;marginBottom=0;rounded=0;shadow=0;strokeWidth=1;" vertex="1" parent="WIyWlLk6GJQsqaUBKTNV-1">
          <mxGeometry x="-1380" y="400" width="240" height="330" as="geometry">
            <mxRectangle x="130" y="380" width="160" height="26" as="alternateBounds" />
          </mxGeometry>
        </mxCell>
        <mxCell id="6Wl_LvFZBxU5VlWJ0OVk-94" value="+ numCols : int" style="text;align=left;verticalAlign=top;spacingLeft=4;spacingRight=4;overflow=hidden;rotatable=0;points=[[0,0.5],[1,0.5]];portConstraint=eastwest;" vertex="1" parent="6Wl_LvFZBxU5VlWJ0OVk-93">
          <mxGeometry y="26" width="240" height="26" as="geometry" />
        </mxCell>
        <mxCell id="6Wl_LvFZBxU5VlWJ0OVk-95" value="+ numRows : int" style="text;align=left;verticalAlign=top;spacingLeft=4;spacingRight=4;overflow=hidden;rotatable=0;points=[[0,0.5],[1,0.5]];portConstraint=eastwest;rounded=0;shadow=0;html=0;" vertex="1" parent="6Wl_LvFZBxU5VlWJ0OVk-93">
          <mxGeometry y="52" width="240" height="26" as="geometry" />
        </mxCell>
        <mxCell id="6Wl_LvFZBxU5VlWJ0OVk-109" value="+ data : Pallet [][]" style="text;align=left;verticalAlign=top;spacingLeft=4;spacingRight=4;overflow=hidden;rotatable=0;points=[[0,0.5],[1,0.5]];portConstraint=eastwest;rounded=0;shadow=0;html=0;" vertex="1" parent="6Wl_LvFZBxU5VlWJ0OVk-93">
          <mxGeometry y="78" width="240" height="26" as="geometry" />
        </mxCell>
        <mxCell id="6Wl_LvFZBxU5VlWJ0OVk-110" value="+ editMode : bool = false" style="text;align=left;verticalAlign=top;spacingLeft=4;spacingRight=4;overflow=hidden;rotatable=0;points=[[0,0.5],[1,0.5]];portConstraint=eastwest;rounded=0;shadow=0;html=0;" vertex="1" parent="6Wl_LvFZBxU5VlWJ0OVk-93">
          <mxGeometry y="104" width="240" height="26" as="geometry" />
        </mxCell>
        <mxCell id="6Wl_LvFZBxU5VlWJ0OVk-111" value="+ showDetails : bool = false" style="text;align=left;verticalAlign=top;spacingLeft=4;spacingRight=4;overflow=hidden;rotatable=0;points=[[0,0.5],[1,0.5]];portConstraint=eastwest;rounded=0;shadow=0;html=0;" vertex="1" parent="6Wl_LvFZBxU5VlWJ0OVk-93">
          <mxGeometry y="130" width="240" height="26" as="geometry" />
        </mxCell>
        <mxCell id="6Wl_LvFZBxU5VlWJ0OVk-96" value="" style="line;html=1;strokeWidth=1;align=left;verticalAlign=middle;spacingTop=-1;spacingLeft=3;spacingRight=3;rotatable=0;labelPosition=right;points=[];portConstraint=eastwest;" vertex="1" parent="6Wl_LvFZBxU5VlWJ0OVk-93">
          <mxGeometry y="156" width="240" height="8" as="geometry" />
        </mxCell>
        <mxCell id="6Wl_LvFZBxU5VlWJ0OVk-97" value="+ PalletMatrix()" style="text;align=left;verticalAlign=top;spacingLeft=4;spacingRight=4;overflow=hidden;rotatable=0;points=[[0,0.5],[1,0.5]];portConstraint=eastwest;rounded=0;shadow=0;html=0;" vertex="1" parent="6Wl_LvFZBxU5VlWJ0OVk-93">
          <mxGeometry y="164" width="240" height="26" as="geometry" />
        </mxCell>
        <mxCell id="6Wl_LvFZBxU5VlWJ0OVk-98" value="+ HighlightCup()" style="text;align=left;verticalAlign=top;spacingLeft=4;spacingRight=4;overflow=hidden;rotatable=0;points=[[0,0.5],[1,0.5]];portConstraint=eastwest;rounded=0;shadow=0;html=0;" vertex="1" parent="6Wl_LvFZBxU5VlWJ0OVk-93">
          <mxGeometry y="190" width="240" height="26" as="geometry" />
        </mxCell>
        <mxCell id="6Wl_LvFZBxU5VlWJ0OVk-112" value="+ FindPalletWithProductID()" style="text;align=left;verticalAlign=top;spacingLeft=4;spacingRight=4;overflow=hidden;rotatable=0;points=[[0,0.5],[1,0.5]];portConstraint=eastwest;rounded=0;shadow=0;html=0;" vertex="1" parent="6Wl_LvFZBxU5VlWJ0OVk-93">
          <mxGeometry y="216" width="240" height="26" as="geometry" />
        </mxCell>
        <mxCell id="6Wl_LvFZBxU5VlWJ0OVk-113" value="+ FindPalletWithCupID()" style="text;align=left;verticalAlign=top;spacingLeft=4;spacingRight=4;overflow=hidden;rotatable=0;points=[[0,0.5],[1,0.5]];portConstraint=eastwest;rounded=0;shadow=0;html=0;" vertex="1" parent="6Wl_LvFZBxU5VlWJ0OVk-93">
          <mxGeometry y="242" width="240" height="26" as="geometry" />
        </mxCell>
        <mxCell id="6Wl_LvFZBxU5VlWJ0OVk-114" value="+ FindSpaceForPallet()" style="text;align=left;verticalAlign=top;spacingLeft=4;spacingRight=4;overflow=hidden;rotatable=0;points=[[0,0.5],[1,0.5]];portConstraint=eastwest;rounded=0;shadow=0;html=0;" vertex="1" parent="6Wl_LvFZBxU5VlWJ0OVk-93">
          <mxGeometry y="268" width="240" height="26" as="geometry" />
        </mxCell>
        <mxCell id="6Wl_LvFZBxU5VlWJ0OVk-115" value="" style="line;html=1;strokeWidth=1;align=left;verticalAlign=middle;spacingTop=-1;spacingLeft=3;spacingRight=3;rotatable=0;labelPosition=right;points=[];portConstraint=eastwest;" vertex="1" parent="6Wl_LvFZBxU5VlWJ0OVk-93">
          <mxGeometry y="294" width="240" height="8" as="geometry" />
        </mxCell>
        <mxCell id="6Wl_LvFZBxU5VlWJ0OVk-116" value="zzgl. Properties und Events / Eventhandler" style="text;align=left;verticalAlign=top;spacingLeft=4;spacingRight=4;overflow=hidden;rotatable=0;points=[[0,0.5],[1,0.5]];portConstraint=eastwest;" vertex="1" parent="6Wl_LvFZBxU5VlWJ0OVk-93">
          <mxGeometry y="302" width="240" height="26" as="geometry" />
        </mxCell>
        <mxCell id="6Wl_LvFZBxU5VlWJ0OVk-99" value="Coord" style="swimlane;fontStyle=1;align=center;verticalAlign=top;childLayout=stackLayout;horizontal=1;startSize=26;horizontalStack=0;resizeParent=1;resizeLast=0;collapsible=1;marginBottom=0;rounded=0;shadow=0;strokeWidth=1;" vertex="1" parent="WIyWlLk6GJQsqaUBKTNV-1">
          <mxGeometry x="-1042" y="400" width="110" height="104" as="geometry">
            <mxRectangle y="26" width="400" height="26" as="alternateBounds" />
          </mxGeometry>
        </mxCell>
        <mxCell id="6Wl_LvFZBxU5VlWJ0OVk-100" value="+ row : ushort = 0" style="text;align=left;verticalAlign=top;spacingLeft=4;spacingRight=4;overflow=hidden;rotatable=0;points=[[0,0.5],[1,0.5]];portConstraint=eastwest;" vertex="1" parent="6Wl_LvFZBxU5VlWJ0OVk-99">
          <mxGeometry y="26" width="110" height="26" as="geometry" />
        </mxCell>
        <mxCell id="6Wl_LvFZBxU5VlWJ0OVk-105" value="+ col : ushort = 0" style="text;align=left;verticalAlign=top;spacingLeft=4;spacingRight=4;overflow=hidden;rotatable=0;points=[[0,0.5],[1,0.5]];portConstraint=eastwest;" vertex="1" parent="6Wl_LvFZBxU5VlWJ0OVk-99">
          <mxGeometry y="52" width="110" height="26" as="geometry" />
        </mxCell>
        <mxCell id="6Wl_LvFZBxU5VlWJ0OVk-106" value="+ pos : ushort = 0" style="text;align=left;verticalAlign=top;spacingLeft=4;spacingRight=4;overflow=hidden;rotatable=0;points=[[0,0.5],[1,0.5]];portConstraint=eastwest;" vertex="1" parent="6Wl_LvFZBxU5VlWJ0OVk-99">
          <mxGeometry y="78" width="110" height="26" as="geometry" />
        </mxCell>
        <mxCell id="6Wl_LvFZBxU5VlWJ0OVk-108" value="" style="edgeStyle=segmentEdgeStyle;endArrow=none;html=1;curved=0;rounded=0;endSize=8;startSize=8;sourcePerimeterSpacing=0;targetPerimeterSpacing=0;endFill=0;" edge="1" parent="WIyWlLk6GJQsqaUBKTNV-1" source="6Wl_LvFZBxU5VlWJ0OVk-93" target="6Wl_LvFZBxU5VlWJ0OVk-99">
          <mxGeometry width="100" relative="1" as="geometry">
            <mxPoint x="-1380" y="420" as="sourcePoint" />
            <mxPoint x="-1320" y="760" as="targetPoint" />
            <Array as="points">
              <mxPoint x="-1120" y="440" />
              <mxPoint x="-1120" y="440" />
            </Array>
          </mxGeometry>
        </mxCell>
        <mxCell id="6Wl_LvFZBxU5VlWJ0OVk-119" value="" style="edgeStyle=segmentEdgeStyle;endArrow=none;html=1;curved=0;rounded=0;endSize=8;startSize=8;sourcePerimeterSpacing=0;targetPerimeterSpacing=0;entryX=0.004;entryY=0.061;entryDx=0;entryDy=0;entryPerimeter=0;endFill=0;" edge="1" parent="WIyWlLk6GJQsqaUBKTNV-1" source="6Wl_LvFZBxU5VlWJ0OVk-3" target="6Wl_LvFZBxU5VlWJ0OVk-93">
          <mxGeometry width="100" relative="1" as="geometry">
            <mxPoint x="-530" y="1026.5" as="sourcePoint" />
            <mxPoint x="-344" y="297.5" as="targetPoint" />
            <Array as="points">
              <mxPoint x="-1500" y="420" />
              <mxPoint x="-1500" y="420" />
            </Array>
          </mxGeometry>
        </mxCell>
        <mxCell id="6Wl_LvFZBxU5VlWJ0OVk-120" value="MobileRobot" style="swimlane;fontStyle=1;align=center;verticalAlign=top;childLayout=stackLayout;horizontal=1;startSize=26;horizontalStack=0;resizeParent=1;resizeLast=0;collapsible=1;marginBottom=0;rounded=0;shadow=0;strokeWidth=1;" vertex="1" parent="WIyWlLk6GJQsqaUBKTNV-1">
          <mxGeometry x="-1380" y="750" width="240" height="230" as="geometry">
            <mxRectangle x="130" y="380" width="160" height="26" as="alternateBounds" />
          </mxGeometry>
        </mxCell>
        <mxCell id="6Wl_LvFZBxU5VlWJ0OVk-121" value="+ positionName : string = string.Empty" style="text;align=left;verticalAlign=top;spacingLeft=4;spacingRight=4;overflow=hidden;rotatable=0;points=[[0,0.5],[1,0.5]];portConstraint=eastwest;" vertex="1" parent="6Wl_LvFZBxU5VlWJ0OVk-120">
          <mxGeometry y="26" width="240" height="26" as="geometry" />
        </mxCell>
        <mxCell id="6Wl_LvFZBxU5VlWJ0OVk-122" value="- isPresent : bool = true" style="text;align=left;verticalAlign=top;spacingLeft=4;spacingRight=4;overflow=hidden;rotatable=0;points=[[0,0.5],[1,0.5]];portConstraint=eastwest;rounded=0;shadow=0;html=0;" vertex="1" parent="6Wl_LvFZBxU5VlWJ0OVk-120">
          <mxGeometry y="52" width="240" height="26" as="geometry" />
        </mxCell>
        <mxCell id="6Wl_LvFZBxU5VlWJ0OVk-170" value="+ cup : Cup" style="text;align=left;verticalAlign=top;spacingLeft=4;spacingRight=4;overflow=hidden;rotatable=0;points=[[0,0.5],[1,0.5]];portConstraint=eastwest;rounded=0;shadow=0;html=0;" vertex="1" parent="6Wl_LvFZBxU5VlWJ0OVk-120">
          <mxGeometry y="78" width="240" height="26" as="geometry" />
        </mxCell>
        <mxCell id="6Wl_LvFZBxU5VlWJ0OVk-124" value="- editMode : bool = false" style="text;align=left;verticalAlign=top;spacingLeft=4;spacingRight=4;overflow=hidden;rotatable=0;points=[[0,0.5],[1,0.5]];portConstraint=eastwest;rounded=0;shadow=0;html=0;" vertex="1" parent="6Wl_LvFZBxU5VlWJ0OVk-120">
          <mxGeometry y="104" width="240" height="26" as="geometry" />
        </mxCell>
        <mxCell id="6Wl_LvFZBxU5VlWJ0OVk-125" value="- showDetails : bool = false" style="text;align=left;verticalAlign=top;spacingLeft=4;spacingRight=4;overflow=hidden;rotatable=0;points=[[0,0.5],[1,0.5]];portConstraint=eastwest;rounded=0;shadow=0;html=0;" vertex="1" parent="6Wl_LvFZBxU5VlWJ0OVk-120">
          <mxGeometry y="130" width="240" height="26" as="geometry" />
        </mxCell>
        <mxCell id="6Wl_LvFZBxU5VlWJ0OVk-126" value="" style="line;html=1;strokeWidth=1;align=left;verticalAlign=middle;spacingTop=-1;spacingLeft=3;spacingRight=3;rotatable=0;labelPosition=right;points=[];portConstraint=eastwest;" vertex="1" parent="6Wl_LvFZBxU5VlWJ0OVk-120">
          <mxGeometry y="156" width="240" height="8" as="geometry" />
        </mxCell>
        <mxCell id="6Wl_LvFZBxU5VlWJ0OVk-127" value="+ MobileRobot()" style="text;align=left;verticalAlign=top;spacingLeft=4;spacingRight=4;overflow=hidden;rotatable=0;points=[[0,0.5],[1,0.5]];portConstraint=eastwest;rounded=0;shadow=0;html=0;" vertex="1" parent="6Wl_LvFZBxU5VlWJ0OVk-120">
          <mxGeometry y="164" width="240" height="26" as="geometry" />
        </mxCell>
        <mxCell id="6Wl_LvFZBxU5VlWJ0OVk-132" value="" style="line;html=1;strokeWidth=1;align=left;verticalAlign=middle;spacingTop=-1;spacingLeft=3;spacingRight=3;rotatable=0;labelPosition=right;points=[];portConstraint=eastwest;" vertex="1" parent="6Wl_LvFZBxU5VlWJ0OVk-120">
          <mxGeometry y="190" width="240" height="8" as="geometry" />
        </mxCell>
        <mxCell id="6Wl_LvFZBxU5VlWJ0OVk-133" value="zzgl. Properties und Events / Eventhandler" style="text;align=left;verticalAlign=top;spacingLeft=4;spacingRight=4;overflow=hidden;rotatable=0;points=[[0,0.5],[1,0.5]];portConstraint=eastwest;" vertex="1" parent="6Wl_LvFZBxU5VlWJ0OVk-120">
          <mxGeometry y="198" width="240" height="26" as="geometry" />
        </mxCell>
        <mxCell id="6Wl_LvFZBxU5VlWJ0OVk-134" style="edgeStyle=orthogonalEdgeStyle;rounded=0;orthogonalLoop=1;jettySize=auto;html=1;exitX=1;exitY=0.5;exitDx=0;exitDy=0;" edge="1" parent="6Wl_LvFZBxU5VlWJ0OVk-120" source="6Wl_LvFZBxU5VlWJ0OVk-122" target="6Wl_LvFZBxU5VlWJ0OVk-122">
          <mxGeometry relative="1" as="geometry" />
        </mxCell>
        <mxCell id="6Wl_LvFZBxU5VlWJ0OVk-135" value="" style="edgeStyle=segmentEdgeStyle;endArrow=none;html=1;curved=0;rounded=0;endSize=8;startSize=8;sourcePerimeterSpacing=0;targetPerimeterSpacing=0;entryX=0;entryY=0.081;entryDx=0;entryDy=0;entryPerimeter=0;endFill=0;" edge="1" parent="WIyWlLk6GJQsqaUBKTNV-1" source="6Wl_LvFZBxU5VlWJ0OVk-3" target="6Wl_LvFZBxU5VlWJ0OVk-120">
          <mxGeometry width="100" relative="1" as="geometry">
            <mxPoint x="-620" y="715.25" as="sourcePoint" />
            <mxPoint x="-434" y="-13.75" as="targetPoint" />
            <Array as="points">
              <mxPoint x="-1380" y="760" />
            </Array>
          </mxGeometry>
        </mxCell>
        <mxCell id="6Wl_LvFZBxU5VlWJ0OVk-136" value="StorageElementBase" style="swimlane;fontStyle=1;align=center;verticalAlign=top;childLayout=stackLayout;horizontal=1;startSize=26;horizontalStack=0;resizeParent=1;resizeLast=0;collapsible=1;marginBottom=0;rounded=0;shadow=0;strokeWidth=1;" vertex="1" parent="WIyWlLk6GJQsqaUBKTNV-1">
          <mxGeometry x="-1110" y="816" width="400" height="164" as="geometry">
            <mxRectangle x="130" y="380" width="160" height="26" as="alternateBounds" />
          </mxGeometry>
        </mxCell>
        <mxCell id="6Wl_LvFZBxU5VlWJ0OVk-137" value="# positionName : string= string.Empty" style="text;align=left;verticalAlign=top;spacingLeft=4;spacingRight=4;overflow=hidden;rotatable=0;points=[[0,0.5],[1,0.5]];portConstraint=eastwest;" vertex="1" parent="6Wl_LvFZBxU5VlWJ0OVk-136">
          <mxGeometry y="26" width="400" height="26" as="geometry" />
        </mxCell>
        <mxCell id="6Wl_LvFZBxU5VlWJ0OVk-138" value="# editMode : bool = false" style="text;align=left;verticalAlign=top;spacingLeft=4;spacingRight=4;overflow=hidden;rotatable=0;points=[[0,0.5],[1,0.5]];portConstraint=eastwest;rounded=0;shadow=0;html=0;" vertex="1" parent="6Wl_LvFZBxU5VlWJ0OVk-136">
          <mxGeometry y="52" width="400" height="26" as="geometry" />
        </mxCell>
        <mxCell id="6Wl_LvFZBxU5VlWJ0OVk-139" value="# showDetails : bool = false" style="text;align=left;verticalAlign=top;spacingLeft=4;spacingRight=4;overflow=hidden;rotatable=0;points=[[0,0.5],[1,0.5]];portConstraint=eastwest;rounded=0;shadow=0;html=0;" vertex="1" parent="6Wl_LvFZBxU5VlWJ0OVk-136">
          <mxGeometry y="78" width="400" height="26" as="geometry" />
        </mxCell>
        <mxCell id="6Wl_LvFZBxU5VlWJ0OVk-140" value="# inTransit : bool = false" style="text;align=left;verticalAlign=top;spacingLeft=4;spacingRight=4;overflow=hidden;rotatable=0;points=[[0,0.5],[1,0.5]];portConstraint=eastwest;rounded=0;shadow=0;html=0;" vertex="1" parent="6Wl_LvFZBxU5VlWJ0OVk-136">
          <mxGeometry y="104" width="400" height="26" as="geometry" />
        </mxCell>
        <mxCell id="6Wl_LvFZBxU5VlWJ0OVk-144" value="" style="line;html=1;strokeWidth=1;align=left;verticalAlign=middle;spacingTop=-1;spacingLeft=3;spacingRight=3;rotatable=0;labelPosition=right;points=[];portConstraint=eastwest;" vertex="1" parent="6Wl_LvFZBxU5VlWJ0OVk-136">
          <mxGeometry y="130" width="400" height="8" as="geometry" />
        </mxCell>
        <mxCell id="6Wl_LvFZBxU5VlWJ0OVk-145" value="zzgl. Properties und Events / Eventhandler" style="text;align=left;verticalAlign=top;spacingLeft=4;spacingRight=4;overflow=hidden;rotatable=0;points=[[0,0.5],[1,0.5]];portConstraint=eastwest;" vertex="1" parent="6Wl_LvFZBxU5VlWJ0OVk-136">
          <mxGeometry y="138" width="400" height="26" as="geometry" />
        </mxCell>
        <mxCell id="6Wl_LvFZBxU5VlWJ0OVk-146" style="edgeStyle=orthogonalEdgeStyle;rounded=0;orthogonalLoop=1;jettySize=auto;html=1;exitX=1;exitY=0.5;exitDx=0;exitDy=0;" edge="1" parent="6Wl_LvFZBxU5VlWJ0OVk-136" source="6Wl_LvFZBxU5VlWJ0OVk-138" target="6Wl_LvFZBxU5VlWJ0OVk-138">
          <mxGeometry relative="1" as="geometry" />
        </mxCell>
        <mxCell id="6Wl_LvFZBxU5VlWJ0OVk-147" value="0..1" style="text;html=1;align=center;verticalAlign=middle;resizable=0;points=[];autosize=1;strokeColor=none;fillColor=none;" vertex="1" parent="WIyWlLk6GJQsqaUBKTNV-1">
          <mxGeometry x="-1420" width="40" height="30" as="geometry" />
        </mxCell>
        <mxCell id="6Wl_LvFZBxU5VlWJ0OVk-148" value="inventory" style="text;html=1;align=center;verticalAlign=middle;resizable=0;points=[];autosize=1;strokeColor=none;fillColor=none;" vertex="1" parent="WIyWlLk6GJQsqaUBKTNV-1">
          <mxGeometry x="-1450" y="20" width="70" height="30" as="geometry" />
        </mxCell>
        <mxCell id="6Wl_LvFZBxU5VlWJ0OVk-149" value="*" style="text;html=1;align=center;verticalAlign=middle;resizable=0;points=[];autosize=1;strokeColor=none;fillColor=none;" vertex="1" parent="WIyWlLk6GJQsqaUBKTNV-1">
          <mxGeometry x="-970" y="30" width="30" height="30" as="geometry" />
        </mxCell>
        <mxCell id="6Wl_LvFZBxU5VlWJ0OVk-150" value="intemsFull&lt;br&gt;ittemsNonEmpty" style="text;html=1;align=right;verticalAlign=middle;resizable=0;points=[];autosize=1;strokeColor=none;fillColor=none;" vertex="1" parent="WIyWlLk6GJQsqaUBKTNV-1">
          <mxGeometry x="-1053" y="60" width="110" height="40" as="geometry" />
        </mxCell>
        <mxCell id="6Wl_LvFZBxU5VlWJ0OVk-151" value="*" style="text;html=1;align=left;verticalAlign=middle;resizable=0;points=[];autosize=1;strokeColor=none;fillColor=none;" vertex="1" parent="WIyWlLk6GJQsqaUBKTNV-1">
          <mxGeometry x="-1140" y="420" width="30" height="30" as="geometry" />
        </mxCell>
        <mxCell id="6Wl_LvFZBxU5VlWJ0OVk-152" value="availlableList" style="text;html=1;align=left;verticalAlign=middle;resizable=0;points=[];autosize=1;strokeColor=none;fillColor=none;" vertex="1" parent="WIyWlLk6GJQsqaUBKTNV-1">
          <mxGeometry x="-1140" y="438" width="90" height="30" as="geometry" />
        </mxCell>
        <mxCell id="6Wl_LvFZBxU5VlWJ0OVk-162" style="edgeStyle=orthogonalEdgeStyle;rounded=0;orthogonalLoop=1;jettySize=auto;html=1;exitX=1;exitY=0.5;exitDx=0;exitDy=0;endArrow=block;endFill=0;" edge="1" parent="WIyWlLk6GJQsqaUBKTNV-1" source="6Wl_LvFZBxU5VlWJ0OVk-153" target="6Wl_LvFZBxU5VlWJ0OVk-83">
          <mxGeometry relative="1" as="geometry">
            <Array as="points">
              <mxPoint x="-787" y="285" />
            </Array>
          </mxGeometry>
        </mxCell>
        <mxCell id="6Wl_LvFZBxU5VlWJ0OVk-163" style="edgeStyle=orthogonalEdgeStyle;rounded=0;orthogonalLoop=1;jettySize=auto;html=1;exitX=0;exitY=0.5;exitDx=0;exitDy=0;endArrow=block;endFill=0;" edge="1" parent="WIyWlLk6GJQsqaUBKTNV-1" source="6Wl_LvFZBxU5VlWJ0OVk-153" target="6Wl_LvFZBxU5VlWJ0OVk-93">
          <mxGeometry relative="1" as="geometry">
            <Array as="points">
              <mxPoint x="-900" y="285" />
              <mxPoint x="-900" y="560" />
            </Array>
          </mxGeometry>
        </mxCell>
        <mxCell id="6Wl_LvFZBxU5VlWJ0OVk-164" style="edgeStyle=orthogonalEdgeStyle;rounded=0;orthogonalLoop=1;jettySize=auto;html=1;exitX=0;exitY=0.5;exitDx=0;exitDy=0;endArrow=block;endFill=0;" edge="1" parent="WIyWlLk6GJQsqaUBKTNV-1" source="6Wl_LvFZBxU5VlWJ0OVk-153" target="6Wl_LvFZBxU5VlWJ0OVk-120">
          <mxGeometry relative="1" as="geometry">
            <Array as="points">
              <mxPoint x="-900" y="285" />
              <mxPoint x="-900" y="760" />
            </Array>
          </mxGeometry>
        </mxCell>
        <mxCell id="6Wl_LvFZBxU5VlWJ0OVk-153" value="INotifyPropertyChanged" style="swimlane;fontStyle=1;align=center;verticalAlign=top;childLayout=stackLayout;horizontal=1;startSize=26;horizontalStack=0;resizeParent=1;resizeLast=0;collapsible=1;marginBottom=0;rounded=0;shadow=0;strokeWidth=1;" vertex="1" parent="WIyWlLk6GJQsqaUBKTNV-1">
          <mxGeometry x="-1340" y="260" width="400" height="49.94" as="geometry">
            <mxRectangle x="130" y="380" width="160" height="26" as="alternateBounds" />
          </mxGeometry>
        </mxCell>
        <mxCell id="6Wl_LvFZBxU5VlWJ0OVk-166" value="0..1" style="text;html=1;align=center;verticalAlign=middle;resizable=0;points=[];autosize=1;strokeColor=none;fillColor=none;" vertex="1" parent="WIyWlLk6GJQsqaUBKTNV-1">
          <mxGeometry x="-1422" y="396" width="40" height="30" as="geometry" />
        </mxCell>
        <mxCell id="6Wl_LvFZBxU5VlWJ0OVk-167" value="storageMatrix&lt;br&gt;commissionMatrix" style="text;html=1;align=right;verticalAlign=middle;resizable=0;points=[];autosize=1;strokeColor=none;fillColor=none;" vertex="1" parent="WIyWlLk6GJQsqaUBKTNV-1">
          <mxGeometry x="-1502" y="417" width="120" height="40" as="geometry" />
        </mxCell>
        <mxCell id="6Wl_LvFZBxU5VlWJ0OVk-168" value="0..1" style="text;html=1;align=center;verticalAlign=middle;resizable=0;points=[];autosize=1;strokeColor=none;fillColor=none;" vertex="1" parent="WIyWlLk6GJQsqaUBKTNV-1">
          <mxGeometry x="-1422" y="737" width="40" height="30" as="geometry" />
        </mxCell>
        <mxCell id="6Wl_LvFZBxU5VlWJ0OVk-169" value="mobileRobot" style="text;html=1;align=center;verticalAlign=middle;resizable=0;points=[];autosize=1;strokeColor=none;fillColor=none;" vertex="1" parent="WIyWlLk6GJQsqaUBKTNV-1">
          <mxGeometry x="-1462" y="757" width="90" height="30" as="geometry" />
        </mxCell>
        <mxCell id="6Wl_LvFZBxU5VlWJ0OVk-171" style="edgeStyle=orthogonalEdgeStyle;rounded=0;orthogonalLoop=1;jettySize=auto;html=1;endArrow=block;endFill=0;" edge="1" parent="WIyWlLk6GJQsqaUBKTNV-1" source="6Wl_LvFZBxU5VlWJ0OVk-153" target="6Wl_LvFZBxU5VlWJ0OVk-136">
          <mxGeometry relative="1" as="geometry">
            <mxPoint x="-540" y="380" as="sourcePoint" />
            <mxPoint x="-800" y="901" as="targetPoint" />
            <Array as="points">
              <mxPoint x="-900" y="285" />
            </Array>
          </mxGeometry>
        </mxCell>
        <mxCell id="6Wl_LvFZBxU5VlWJ0OVk-172" value="Cup" style="swimlane;fontStyle=1;align=center;verticalAlign=top;childLayout=stackLayout;horizontal=1;startSize=26;horizontalStack=0;resizeParent=1;resizeLast=0;collapsible=1;marginBottom=0;rounded=0;shadow=0;strokeWidth=1;" vertex="1" parent="WIyWlLk6GJQsqaUBKTNV-1">
          <mxGeometry x="-1382" y="1097" width="400" height="276" as="geometry">
            <mxRectangle x="130" y="380" width="160" height="26" as="alternateBounds" />
          </mxGeometry>
        </mxCell>
        <mxCell id="6Wl_LvFZBxU5VlWJ0OVk-173" value="- status : ModBusStatus" style="text;align=left;verticalAlign=top;spacingLeft=4;spacingRight=4;overflow=hidden;rotatable=0;points=[[0,0.5],[1,0.5]];portConstraint=eastwest;" vertex="1" parent="6Wl_LvFZBxU5VlWJ0OVk-172">
          <mxGeometry y="26" width="400" height="26" as="geometry" />
        </mxCell>
        <mxCell id="6Wl_LvFZBxU5VlWJ0OVk-174" value="- ixCupId : int = 0" style="text;align=left;verticalAlign=top;spacingLeft=4;spacingRight=4;overflow=hidden;rotatable=0;points=[[0,0.5],[1,0.5]];portConstraint=eastwest;rounded=0;shadow=0;html=0;" vertex="1" parent="6Wl_LvFZBxU5VlWJ0OVk-172">
          <mxGeometry y="52" width="400" height="26" as="geometry" />
        </mxCell>
        <mxCell id="6Wl_LvFZBxU5VlWJ0OVk-175" value="- ixProductID : int = 0" style="text;align=left;verticalAlign=top;spacingLeft=4;spacingRight=4;overflow=hidden;rotatable=0;points=[[0,0.5],[1,0.5]];portConstraint=eastwest;rounded=0;shadow=0;html=0;" vertex="1" parent="6Wl_LvFZBxU5VlWJ0OVk-172">
          <mxGeometry y="78" width="400" height="26" as="geometry" />
        </mxCell>
        <mxCell id="6Wl_LvFZBxU5VlWJ0OVk-176" value="- productList : Dictionary&lt;int, string&gt; = null" style="text;align=left;verticalAlign=top;spacingLeft=4;spacingRight=4;overflow=hidden;rotatable=0;points=[[0,0.5],[1,0.5]];portConstraint=eastwest;rounded=0;shadow=0;html=0;" vertex="1" parent="6Wl_LvFZBxU5VlWJ0OVk-172">
          <mxGeometry y="104" width="400" height="26" as="geometry" />
        </mxCell>
        <mxCell id="6Wl_LvFZBxU5VlWJ0OVk-180" value="- productDescription : string = string.Empty" style="text;align=left;verticalAlign=top;spacingLeft=4;spacingRight=4;overflow=hidden;rotatable=0;points=[[0,0.5],[1,0.5]];portConstraint=eastwest;rounded=0;shadow=0;html=0;" vertex="1" parent="6Wl_LvFZBxU5VlWJ0OVk-172">
          <mxGeometry y="130" width="400" height="26" as="geometry" />
        </mxCell>
        <mxCell id="6Wl_LvFZBxU5VlWJ0OVk-181" value="- isHighlighted : bool = false" style="text;align=left;verticalAlign=top;spacingLeft=4;spacingRight=4;overflow=hidden;rotatable=0;points=[[0,0.5],[1,0.5]];portConstraint=eastwest;rounded=0;shadow=0;html=0;" vertex="1" parent="6Wl_LvFZBxU5VlWJ0OVk-172">
          <mxGeometry y="156" width="400" height="26" as="geometry" />
        </mxCell>
        <mxCell id="6Wl_LvFZBxU5VlWJ0OVk-182" value="- highlightindex : int = -1" style="text;align=left;verticalAlign=top;spacingLeft=4;spacingRight=4;overflow=hidden;rotatable=0;points=[[0,0.5],[1,0.5]];portConstraint=eastwest;rounded=0;shadow=0;html=0;" vertex="1" parent="6Wl_LvFZBxU5VlWJ0OVk-172">
          <mxGeometry y="182" width="400" height="26" as="geometry" />
        </mxCell>
        <mxCell id="6Wl_LvFZBxU5VlWJ0OVk-177" value="" style="line;html=1;strokeWidth=1;align=left;verticalAlign=middle;spacingTop=-1;spacingLeft=3;spacingRight=3;rotatable=0;labelPosition=right;points=[];portConstraint=eastwest;" vertex="1" parent="6Wl_LvFZBxU5VlWJ0OVk-172">
          <mxGeometry y="208" width="400" height="8" as="geometry" />
        </mxCell>
        <mxCell id="6Wl_LvFZBxU5VlWJ0OVk-179" style="edgeStyle=orthogonalEdgeStyle;rounded=0;orthogonalLoop=1;jettySize=auto;html=1;exitX=1;exitY=0.5;exitDx=0;exitDy=0;" edge="1" parent="6Wl_LvFZBxU5VlWJ0OVk-172" source="6Wl_LvFZBxU5VlWJ0OVk-174" target="6Wl_LvFZBxU5VlWJ0OVk-174">
          <mxGeometry relative="1" as="geometry" />
        </mxCell>
        <mxCell id="6Wl_LvFZBxU5VlWJ0OVk-183" value="+ Cup()" style="text;align=left;verticalAlign=top;spacingLeft=4;spacingRight=4;overflow=hidden;rotatable=0;points=[[0,0.5],[1,0.5]];portConstraint=eastwest;rounded=0;shadow=0;html=0;" vertex="1" parent="6Wl_LvFZBxU5VlWJ0OVk-172">
          <mxGeometry y="216" width="400" height="26" as="geometry" />
        </mxCell>
        <mxCell id="6Wl_LvFZBxU5VlWJ0OVk-184" value="" style="line;html=1;strokeWidth=1;align=left;verticalAlign=middle;spacingTop=-1;spacingLeft=3;spacingRight=3;rotatable=0;labelPosition=right;points=[];portConstraint=eastwest;" vertex="1" parent="6Wl_LvFZBxU5VlWJ0OVk-172">
          <mxGeometry y="242" width="400" height="8" as="geometry" />
        </mxCell>
        <mxCell id="6Wl_LvFZBxU5VlWJ0OVk-178" value="zzgl. Properties" style="text;align=left;verticalAlign=top;spacingLeft=4;spacingRight=4;overflow=hidden;rotatable=0;points=[[0,0.5],[1,0.5]];portConstraint=eastwest;" vertex="1" parent="6Wl_LvFZBxU5VlWJ0OVk-172">
          <mxGeometry y="250" width="400" height="26" as="geometry" />
        </mxCell>
        <mxCell id="6Wl_LvFZBxU5VlWJ0OVk-185" style="edgeStyle=orthogonalEdgeStyle;rounded=0;orthogonalLoop=1;jettySize=auto;html=1;endArrow=block;endFill=0;" edge="1" parent="WIyWlLk6GJQsqaUBKTNV-1" source="6Wl_LvFZBxU5VlWJ0OVk-136" target="6Wl_LvFZBxU5VlWJ0OVk-172">
          <mxGeometry relative="1" as="geometry">
            <mxPoint x="-470" y="520" as="sourcePoint" />
            <mxPoint x="-430" y="1051" as="targetPoint" />
            <Array as="points">
              <mxPoint x="-910" y="1050" />
              <mxPoint x="-1210" y="1050" />
            </Array>
          </mxGeometry>
        </mxCell>
        <mxCell id="6Wl_LvFZBxU5VlWJ0OVk-186" value="" style="edgeStyle=segmentEdgeStyle;endArrow=none;html=1;curved=0;rounded=0;endSize=8;startSize=8;sourcePerimeterSpacing=0;targetPerimeterSpacing=0;endFill=0;" edge="1" parent="WIyWlLk6GJQsqaUBKTNV-1" source="6Wl_LvFZBxU5VlWJ0OVk-120" target="6Wl_LvFZBxU5VlWJ0OVk-172">
          <mxGeometry width="100" relative="1" as="geometry">
            <mxPoint x="-1520" y="1050" as="sourcePoint" />
            <mxPoint x="-1334" y="1059" as="targetPoint" />
            <Array as="points">
              <mxPoint x="-1510" y="865" />
              <mxPoint x="-1510" y="1235" />
            </Array>
          </mxGeometry>
        </mxCell>
        <mxCell id="6Wl_LvFZBxU5VlWJ0OVk-187" value="0..1" style="text;html=1;align=right;verticalAlign=middle;resizable=0;points=[];autosize=1;strokeColor=none;fillColor=none;" vertex="1" parent="WIyWlLk6GJQsqaUBKTNV-1">
          <mxGeometry x="-1425" y="1211" width="40" height="30" as="geometry" />
        </mxCell>
        <mxCell id="6Wl_LvFZBxU5VlWJ0OVk-188" value="cup" style="text;html=1;align=right;verticalAlign=middle;resizable=0;points=[];autosize=1;strokeColor=none;fillColor=none;" vertex="1" parent="WIyWlLk6GJQsqaUBKTNV-1">
          <mxGeometry x="-1427" y="1231" width="40" height="30" as="geometry" />
        </mxCell>
        <mxCell id="6Wl_LvFZBxU5VlWJ0OVk-190" style="edgeStyle=orthogonalEdgeStyle;rounded=0;orthogonalLoop=1;jettySize=auto;html=1;exitX=1;exitY=0.25;exitDx=0;exitDy=0;endArrow=block;endFill=0;" edge="1" parent="WIyWlLk6GJQsqaUBKTNV-1" source="6Wl_LvFZBxU5VlWJ0OVk-189" target="6Wl_LvFZBxU5VlWJ0OVk-3">
          <mxGeometry relative="1" as="geometry">
            <Array as="points">
              <mxPoint x="-1870" y="13" />
              <mxPoint x="-1870" y="13" />
            </Array>
          </mxGeometry>
        </mxCell>
        <mxCell id="6Wl_LvFZBxU5VlWJ0OVk-189" value="System.Windows.Window" style="swimlane;fontStyle=1;align=center;verticalAlign=top;childLayout=stackLayout;horizontal=1;startSize=26;horizontalStack=0;resizeParent=1;resizeLast=0;collapsible=1;marginBottom=0;rounded=0;shadow=0;strokeWidth=1;" vertex="1" parent="WIyWlLk6GJQsqaUBKTNV-1">
          <mxGeometry x="-2336" width="176" height="49.94" as="geometry">
            <mxRectangle x="130" y="380" width="160" height="26" as="alternateBounds" />
          </mxGeometry>
        </mxCell>
        <mxCell id="6Wl_LvFZBxU5VlWJ0OVk-192" style="edgeStyle=orthogonalEdgeStyle;rounded=0;orthogonalLoop=1;jettySize=auto;html=1;endArrow=block;endFill=0;" edge="1" parent="WIyWlLk6GJQsqaUBKTNV-1" source="6Wl_LvFZBxU5VlWJ0OVk-191">
          <mxGeometry relative="1" as="geometry">
            <mxPoint x="-2126" y="110.17500000000007" as="sourcePoint" />
            <mxPoint x="-2203" y="657.0000000000002" as="targetPoint" />
            <Array as="points">
              <mxPoint x="-2203" y="510" />
              <mxPoint x="-2203" y="510" />
            </Array>
          </mxGeometry>
        </mxCell>
        <mxCell id="6Wl_LvFZBxU5VlWJ0OVk-191" value="System.Windows.Application" style="swimlane;fontStyle=1;align=center;verticalAlign=top;childLayout=stackLayout;horizontal=1;startSize=26;horizontalStack=0;resizeParent=1;resizeLast=0;collapsible=1;marginBottom=0;rounded=0;shadow=0;strokeWidth=1;" vertex="1" parent="WIyWlLk6GJQsqaUBKTNV-1">
          <mxGeometry x="-2310" y="468" width="210" height="49.94" as="geometry">
            <mxRectangle x="130" y="380" width="160" height="26" as="alternateBounds" />
          </mxGeometry>
        </mxCell>
      </root>
    </mxGraphModel>
  </diagram>
</mxfile>
